<?xml version="1.0" encoding="UTF-8" standalone="no"?>
<svg
   id="Layer_1"
   data-name="Layer 1"
   viewBox="0 0 1844.8 432.1"
   version="1.1"
   sodipodi:docname="logo_upmixproto.svg"
   width="1844.8"
   height="432.10001"
   inkscape:version="1.3.2 (091e20e, 2023-11-25)"
   xmlns:inkscape="http://www.inkscape.org/namespaces/inkscape"
   xmlns:sodipodi="http://sodipodi.sourceforge.net/DTD/sodipodi-0.dtd"
   xmlns="http://www.w3.org/2000/svg"
   xmlns:svg="http://www.w3.org/2000/svg">
  <sodipodi:namedview
     id="namedview18"
     pagecolor="#ffffff"
     bordercolor="#000000"
     borderopacity="0.25"
     inkscape:showpageshadow="2"
     inkscape:pageopacity="0.0"
     inkscape:pagecheckerboard="0"
     inkscape:deskcolor="#d1d1d1"
     inkscape:zoom="0.87790452"
     inkscape:cx="802.47907"
     inkscape:cy="286.47762"
     inkscape:window-width="2880"
     inkscape:window-height="1562"
     inkscape:window-x="0"
     inkscape:window-y="30"
     inkscape:window-maximized="1"
     inkscape:current-layer="Layer_1" />
  <defs
     id="defs1">
    <style
       id="style1">
      .cls-1 {
        fill: #fff;
      }
    </style>
  </defs>
  <g
     id="g7">
    <rect
       class="cls-1"
       x="10.36"
       y="5.1799998"
       width="169.85001"
       height="169.85001"
       id="rect1" />
    <rect
       class="cls-1"
       x="214.19"
       y="5.1799998"
       width="169.85001"
       height="169.85001"
       id="rect2" />
    <rect
       class="cls-1"
       x="214.19"
       y="209"
       width="169.85001"
       height="169.85001"
       id="rect3" />
    <path
       class="cls-1"
       d="m 188.58,293.8 c 0,51.52 -41.77,93.29 -93.29,93.29 C 43.77,387.09 2,345.32 2,293.8 c 0,-51.52 41.77,-93.29 93.29,-93.29 51.52,0 93.29,41.77 93.29,93.29"
       id="path3" />
    <g
       id="g6">
      <path
         class="cls-1"
         d="m 807.74,148.03 c 18.55,0 32.14,-13.88 32.14,-32.35 0,-18.47 -13.6,-32.53 -32.14,-32.53 -18.54,0 -32.19,13.93 -32.19,32.53 0,18.6 13.64,32.35 32.19,32.35 z m 64.69,-32.35 c 0,35.93 -26.08,62.71 -62.09,62.71 -14.35,0 -27.08,-4.89 -36.97,-13.28 l -10.74,9.91 H 746 V 5.18 h 31.93 v 57.58 c 9.12,-6.24 20.18,-9.78 32.4,-9.78 36.01,0 62.09,26.74 62.09,62.7"
         id="path4" />
      <path
         class="cls-1"
         d="m 548.87,115.69 c 0,-18.61 -13.64,-32.53 -32.19,-32.53 -18.55,0 -32.14,13.88 -32.14,32.53 0,18.65 13.6,32.53 32.14,32.53 18.54,0 32.19,-13.97 32.19,-32.53 M 578.41,5.18 v 169.85 h -16.63 l -10.72,-9.88 c -9.91,8.48 -22.67,13.43 -36.98,13.43 -35.83,0 -62.09,-26.96 -62.09,-62.89 0,-35.93 26.27,-62.7 62.09,-62.7 12.19,0 23.27,3.56 32.4,9.83 V 5.18 Z"
         id="path5" />
      <path
         class="cls-1"
         d="m 655.16,27.89 c 9.79,0 16.26,5.94 16.26,14.7 0,9.76 -9.78,16.37 -22.39,23.38 -6.71,-10.16 -10.23,-17.84 -10.23,-23.2 0,-8.89 6.47,-14.88 16.35,-14.88 m 57.91,116.74 c 9.35,-13.51 14.91,-30.6 15.69,-50.21 h -29.78 c -0.73,9.72 -3.12,18.47 -6.87,25.91 -3.98,10.04 -10.16,16.86 -19.38,21.51 -6.77,3.43 -14.76,5.49 -23,5.49 -14.02,0 -23.33,-7.67 -23.33,-19.31 0,-9.97 5.97,-17.27 14.29,-24 9.13,-7.38 13.79,-9.54 24.98,-15.55 18.65,-10.85 36.89,-23.25 36.89,-46.09 0,-24.2 -19.01,-40.39 -47.4,-40.39 -28.39,0 -47.89,16.06 -47.89,40.57 0,9.58 2.89,19.37 15.83,38.12 -16.02,10.51 -29.85,24.7 -29.85,48.47 0,29.48 21.36,48.74 53.15,48.74 17.64,0 33.27,-4.65 46.06,-13.05 2.9,3.29 5.91,6.68 9.01,10.17 h 38.05 c -9.4,-10.79 -18.22,-20.92 -26.45,-30.38"
         id="path6" />
    </g>
  </g>
  <path
     style="font-size:240px;font-family:'Mark Pro';-inkscape-font-specification:'Mark Pro';fill:#ffffff;stroke:#ffffff;stroke-width:0.756"
     d="m 508.11722,380.97235 q -14.16,0 -25.92,-5.52 -11.76,-5.52 -18.72,-16.68 -6.96,-11.28 -6.96,-27.48 v -66.24 h 17.88 v 64.56 q 0,11.4 4.32,19.2 4.32,7.68 11.88,11.52 7.56,3.84 17.52,3.84 9.96,0 17.52,-3.72 7.56,-3.84 11.76,-11.64 4.32,-7.8 4.32,-19.2 v -64.56 h 18 v 66.24 q 0,16.2 -7.08,27.48 -6.96,11.16 -18.72,16.68 -11.64,5.52 -25.8,5.52 z m 92.27997,45.72 v -161.64 h 18 v 16.8 q 7.08,-9 17.4,-14.04 10.44,-5.04 24,-5.04 15.84,0 28.8,7.68 12.96,7.68 20.4,21.12 7.56,13.44 7.56,30.24 0,16.8 -7.56,30.36 -7.44,13.44 -20.4,21.12 -12.96,7.68 -28.8,7.68 -13.56,0 -24,-5.04 -10.32,-5.04 -17.4,-14.04 v 64.8 z m 57.24,-62.52 q 11.88,0 21.12,-5.64 9.24,-5.64 14.28,-15.24 5.16,-9.72 5.16,-21.48 0,-11.64 -5.16,-21.24 -5.16,-9.72 -14.4,-15.36 -9.24,-5.64 -21,-5.64 -11.64,0 -20.88,5.52 -9.24,5.52 -14.4,15.24 -5.16,9.6 -5.16,21.48 0,12 5.16,21.72 5.16,9.6 14.4,15.12 9.24,5.52 20.88,5.52 z m 92.2798,14.52 v -113.64 h 17.76 v 16.2 q 6.48,-9.6 16.68,-14.04 10.2,-4.44 21.6,-4.44 9.84,0 18.12,2.88 8.4,2.88 14.64,8.28 6.24,5.28 9.84,12.72 4.32,-8.4 11.16,-13.68 6.96,-5.4 15,-7.8 8.16,-2.4 16.68,-2.4 14.04,0 24.72,5.64 10.8,5.64 16.8,15.96 6,10.32 6,23.88 v 70.44 h -17.88 v -64.56 q 0,-10.8 -3.84,-18.48 -3.84,-7.68 -11.28,-11.76 -7.44,-4.08 -17.76,-4.08 -9.6,0 -17.52,4.32 -7.92,4.2 -12.6,12.12 -4.68,7.8 -4.68,18.36 v 64.08 h -17.88 v -64.56 q 0,-10.8 -3.84,-18.48 -3.84,-7.68 -11.28,-11.76 -7.32,-4.08 -17.64,-4.08 -9.6,0 -17.52,4.32 -7.92,4.2 -12.6,12.12 -4.68,7.8 -4.68,18.36 v 64.08 z m 238.68018,-141.36 q -3.6,0 -6.48,-1.56 -2.88,-1.68 -4.56,-4.56 -1.56,-2.88 -1.56,-6.48 0,-3.6 1.56,-6.48 1.68,-2.88 4.56,-4.56 2.88,-1.68 6.48,-1.68 3.48,0 6.36,1.68 3,1.68 4.68,4.68 1.68003,2.88 1.68003,6.36 0,3.48 -1.68003,6.48 -1.68,2.88 -4.68,4.56 -2.88,1.56 -6.36,1.56 z m 9,141.36 h -18 v -113.64 h 18 z m 46.20003,0 h -21 l 45.6,-58.08 -44.4,-55.56 h 21.96 l 34.32,43.08 34.44,-43.08 h 21.12 l -44.4,55.44 45.72,58.2 h -21.96 l -35.88,-44.88 z m 181.56,48 v -161.64 h 18 v 16.8 q 7.08,-9 17.4,-14.04 10.44,-5.04 24,-5.04 15.84,0 28.8,7.68 12.96,7.68 20.4,21.12 7.56,13.44 7.56,30.24 0,16.8 -7.56,30.36 -7.44,13.44 -20.4,21.12 -12.96,7.68 -28.8,7.68 -13.56,0 -24,-5.04 -10.32,-5.04 -17.4,-14.04 v 64.8 z m 57.24,-62.52 q 11.88,0 21.12,-5.64 9.24,-5.64 14.28,-15.24 5.16,-9.72 5.16,-21.48 0,-11.64 -5.16,-21.24 -5.16,-9.72 -14.4,-15.36 -9.24,-5.64 -21,-5.64 -11.64,0 -20.88,5.52 -9.24,5.52 -14.4,15.24 -5.16,9.6 -5.16,21.48 0,12 5.16,21.72 5.16,9.6 14.4,15.12 9.24,5.52 20.88,5.52 z m 92.2798,14.52 v -113.64 h 17.76 v 15.96 q 5.88,-8.76 14.52,-13.44 8.76,-4.8 19.2,-4.8 6.24,0 11.28,0.96 5.16,0.84 9.6,2.88 l -4.32,17.64 q -4.08,-2.16 -9.36,-3.36 -5.16,-1.2 -10.32,-1.2 -8.88,0 -15.84,4.44 -6.84,4.32 -10.8,12.36 -3.84,8.04 -3.84,18.6 v 63.6 z m 145.9201,2.28 q -16.8,0 -30.48,-7.68 -13.68,-7.8 -21.48,-21.24 -7.8,-13.56 -7.8,-30.24 0,-16.56 7.8,-30 7.8,-13.56 21.48,-21.24 13.68,-7.8 30.48,-7.8 16.8,0 30.48,7.8 13.8,7.68 21.6,21.24 7.8,13.44 7.8,30 0,16.68 -7.8,30.24 -7.8,13.44 -21.6,21.24 -13.68,7.68 -30.48,7.68 z m 0,-16.8 q 11.64,0 21.12,-5.4 9.48,-5.52 14.88,-15.12 5.52,-9.72 5.52,-21.84 0,-12 -5.52,-21.6 -5.4,-9.72 -14.88,-15.12 -9.48,-5.52 -21.12,-5.52 -11.64,0 -21.12,5.52 -9.48,5.4 -15,15.12 -5.4,9.6 -5.4,21.6 0,12.12 5.4,21.84 5.4,9.6 14.88,15.12 9.6,5.4 21.24,5.4 z m 141.2401,16.8 q -18.72,0 -28.92,-10.44 -10.08,-10.56 -10.08,-31.56 v -57.72 h -24.84 v -16.2 h 24.84 v -36.12 h 17.88 v 36.12 h 49.08 v 16.2 h -49.08 v 57.36 q 0,12.84 6.12,19.2 6.12,6.36 16.44,6.36 6.36,0 12.48,-2.16 6.24,-2.16 11.4,-5.88 l 8.4,13.56 q -6.84,5.28 -15.36,8.28 -8.4,3 -18.36,3 z m 110.28,0 q -16.8,0 -30.48,-7.68 -13.68,-7.8 -21.48,-21.24 -7.8,-13.56 -7.8,-30.24 0,-16.56 7.8,-30 7.8,-13.56 21.48,-21.24 13.68,-7.8 30.48,-7.8 16.8,0 30.48,7.8 13.8,7.68 21.6,21.24 7.8,13.44 7.8,30 0,16.68 -7.8,30.24 -7.8,13.44 -21.6,21.24 -13.68,7.68 -30.48,7.68 z m 0,-16.8 q 11.64,0 21.12,-5.4 9.48,-5.52 14.88,-15.12 5.52,-9.72 5.52,-21.84 0,-12 -5.52,-21.6 -5.4,-9.72 -14.88,-15.12 -9.48,-5.52 -21.12,-5.52 -11.64,0 -21.12,5.52 -9.48,5.4 -15,15.12 -5.4,9.6 -5.4,21.6 0,12.12 5.4,21.84 5.4,9.6 14.88,15.12 9.6,5.4 21.24,5.4 z"
     id="text18"
     aria-label="upmix proto" />
</svg>
